STARTFONT 2.1
FONT -artwiz-glisp-medium-r-normal--11-110-75-75-p-90-ISO8859-1
SIZE 11 75 75
FONTBOUNDINGBOX 9 10 -1 -2
STARTPROPERTIES 27
FONTNAME_REGISTRY ""
FOUNDRY "artwiz"
FAMILY_NAME "glisp"
WEIGHT_NAME "medium"
SLANT "r"
SETWIDTH_NAME "normal"
ADD_STYLE_NAME ""
PIXEL_SIZE 11
POINT_SIZE 110
RESOLUTION_X 75
RESOLUTION_Y 75
SPACING "p"
AVERAGE_WIDTH 90
CHARSET_REGISTRY "ISO8859"
CHARSET_ENCODING "1"
COPYRIGHT "artwiz, fixed by aleczapka, latin1 chars by Sergio Martins"
FACE_NAME "glisp"
WEIGHT 10
RESOLUTION 99
X_HEIGHT 6
QUAD_WIDTH 7
_XMBDFED_INFO "Edited with xmbdfed 4.7."
DEFAULT_CHAR 63
FONT_ASCENT 8
FONT_DESCENT 2
_ORIGINAL_FONT_NAME "glisp"
_GBDFED_INFO "Edited with gbdfed 1.1."
ENDPROPERTIES
CHARS 190
STARTCHAR char32
ENCODING 32
SWIDTH 436 0
DWIDTH 5 0
BBX 0 0 0 0
BITMAP
ENDCHAR
STARTCHAR char33
ENCODING 33
SWIDTH 261 0
DWIDTH 3 0
BBX 1 7 1 0
BITMAP
80
80
80
80
00
80
80
ENDCHAR
STARTCHAR char34
ENCODING 34
SWIDTH 436 0
DWIDTH 5 0
BBX 3 3 1 5
BITMAP
A0
A0
A0
ENDCHAR
STARTCHAR char35
ENCODING 35
SWIDTH 610 0
DWIDTH 7 0
BBX 5 7 1 0
BITMAP
50
50
D8
50
D8
50
50
ENDCHAR
STARTCHAR char36
ENCODING 36
SWIDTH 523 0
DWIDTH 6 0
BBX 4 9 1 -1
BITMAP
20
70
A0
A0
60
50
50
E0
40
ENDCHAR
STARTCHAR char37
ENCODING 37
SWIDTH 610 0
DWIDTH 7 0
BBX 5 6 1 0
BITMAP
90
90
20
20
48
48
ENDCHAR
STARTCHAR char38
ENCODING 38
SWIDTH 698 0
DWIDTH 8 0
BBX 7 7 0 0
BITMAP
30
48
48
30
4A
44
3A
ENDCHAR
STARTCHAR char39
ENCODING 39
SWIDTH 261 0
DWIDTH 3 0
BBX 2 4 0 4
BITMAP
40
40
40
80
ENDCHAR
STARTCHAR char40
ENCODING 40
SWIDTH 349 0
DWIDTH 4 0
BBX 2 9 1 -1
BITMAP
40
80
80
80
80
80
80
80
40
ENDCHAR
STARTCHAR char41
ENCODING 41
SWIDTH 349 0
DWIDTH 4 0
BBX 2 9 1 -1
BITMAP
80
40
40
40
40
40
40
40
80
ENDCHAR
STARTCHAR char42
ENCODING 42
SWIDTH 436 0
DWIDTH 5 0
BBX 4 5 1 1
BITMAP
90
60
F0
60
90
ENDCHAR
STARTCHAR char43
ENCODING 43
SWIDTH 610 0
DWIDTH 7 0
BBX 5 5 1 1
BITMAP
20
20
F8
20
20
ENDCHAR
STARTCHAR char44
ENCODING 44
SWIDTH 261 0
DWIDTH 3 0
BBX 2 4 0 -2
BITMAP
40
40
40
80
ENDCHAR
STARTCHAR char45
ENCODING 45
SWIDTH 523 0
DWIDTH 6 0
BBX 4 1 1 4
BITMAP
F0
ENDCHAR
STARTCHAR char46
ENCODING 46
SWIDTH 261 0
DWIDTH 3 0
BBX 1 2 1 0
BITMAP
80
80
ENDCHAR
STARTCHAR char47
ENCODING 47
SWIDTH 610 0
DWIDTH 7 0
BBX 5 10 1 -2
BITMAP
08
08
10
10
20
20
40
40
80
80
ENDCHAR
STARTCHAR char48
ENCODING 48
SWIDTH 523 0
DWIDTH 6 0
BBX 4 7 1 0
BITMAP
60
90
90
90
90
90
60
ENDCHAR
STARTCHAR char49
ENCODING 49
SWIDTH 349 0
DWIDTH 4 0
BBX 2 7 1 0
BITMAP
C0
40
40
40
40
40
40
ENDCHAR
STARTCHAR char50
ENCODING 50
SWIDTH 523 0
DWIDTH 6 0
BBX 4 7 1 0
BITMAP
E0
10
10
20
40
80
F0
ENDCHAR
STARTCHAR char51
ENCODING 51
SWIDTH 523 0
DWIDTH 6 0
BBX 4 7 1 0
BITMAP
E0
10
10
70
10
10
E0
ENDCHAR
STARTCHAR char52
ENCODING 52
SWIDTH 523 0
DWIDTH 6 0
BBX 4 7 1 0
BITMAP
90
90
90
90
70
10
10
ENDCHAR
STARTCHAR char53
ENCODING 53
SWIDTH 523 0
DWIDTH 6 0
BBX 4 7 1 0
BITMAP
F0
80
E0
10
10
10
E0
ENDCHAR
STARTCHAR char54
ENCODING 54
SWIDTH 523 0
DWIDTH 6 0
BBX 4 7 1 0
BITMAP
60
80
E0
90
90
90
60
ENDCHAR
STARTCHAR char55
ENCODING 55
SWIDTH 523 0
DWIDTH 6 0
BBX 4 7 1 0
BITMAP
F0
10
10
20
20
40
40
ENDCHAR
STARTCHAR char56
ENCODING 56
SWIDTH 523 0
DWIDTH 6 0
BBX 4 7 1 0
BITMAP
60
90
90
60
90
90
60
ENDCHAR
STARTCHAR char57
ENCODING 57
SWIDTH 523 0
DWIDTH 6 0
BBX 4 7 1 0
BITMAP
60
90
90
70
10
10
60
ENDCHAR
STARTCHAR char58
ENCODING 58
SWIDTH 261 0
DWIDTH 3 0
BBX 1 6 1 0
BITMAP
80
80
00
00
80
80
ENDCHAR
STARTCHAR char59
ENCODING 59
SWIDTH 261 0
DWIDTH 3 0
BBX 2 8 0 -2
BITMAP
40
40
00
00
40
40
40
80
ENDCHAR
STARTCHAR char60
ENCODING 60
SWIDTH 523 0
DWIDTH 6 0
BBX 4 7 1 0
BITMAP
10
20
40
80
40
20
10
ENDCHAR
STARTCHAR char61
ENCODING 61
SWIDTH 610 0
DWIDTH 7 0
BBX 5 3 1 2
BITMAP
F8
00
F8
ENDCHAR
STARTCHAR char62
ENCODING 62
SWIDTH 523 0
DWIDTH 6 0
BBX 4 7 1 0
BITMAP
80
40
20
10
20
40
80
ENDCHAR
STARTCHAR char63
ENCODING 63
SWIDTH 523 0
DWIDTH 6 0
BBX 4 7 1 0
BITMAP
E0
10
20
40
00
40
40
ENDCHAR
STARTCHAR char64
ENCODING 64
SWIDTH 523 0
DWIDTH 6 0
BBX 4 7 1 0
BITMAP
60
90
90
B0
B0
80
70
ENDCHAR
STARTCHAR char65
ENCODING 65
SWIDTH 523 0
DWIDTH 6 0
BBX 4 7 1 0
BITMAP
60
90
90
F0
90
90
90
ENDCHAR
STARTCHAR char66
ENCODING 66
SWIDTH 523 0
DWIDTH 6 0
BBX 4 7 1 0
BITMAP
E0
90
90
E0
90
90
E0
ENDCHAR
STARTCHAR char67
ENCODING 67
SWIDTH 523 0
DWIDTH 6 0
BBX 4 7 1 0
BITMAP
70
80
80
80
80
80
70
ENDCHAR
STARTCHAR char68
ENCODING 68
SWIDTH 523 0
DWIDTH 6 0
BBX 4 7 1 0
BITMAP
E0
90
90
90
90
90
E0
ENDCHAR
STARTCHAR char69
ENCODING 69
SWIDTH 523 0
DWIDTH 6 0
BBX 4 7 1 0
BITMAP
F0
80
80
E0
80
80
F0
ENDCHAR
STARTCHAR char70
ENCODING 70
SWIDTH 523 0
DWIDTH 6 0
BBX 4 7 1 0
BITMAP
F0
80
80
E0
80
80
80
ENDCHAR
STARTCHAR char71
ENCODING 71
SWIDTH 523 0
DWIDTH 6 0
BBX 4 7 1 0
BITMAP
60
80
80
B0
90
90
60
ENDCHAR
STARTCHAR char72
ENCODING 72
SWIDTH 523 0
DWIDTH 6 0
BBX 4 7 1 0
BITMAP
90
90
90
F0
90
90
90
ENDCHAR
STARTCHAR char73
ENCODING 73
SWIDTH 261 0
DWIDTH 3 0
BBX 1 7 1 0
BITMAP
80
80
80
80
80
80
80
ENDCHAR
STARTCHAR char74
ENCODING 74
SWIDTH 436 0
DWIDTH 5 0
BBX 3 7 1 0
BITMAP
60
20
20
20
20
20
C0
ENDCHAR
STARTCHAR char75
ENCODING 75
SWIDTH 523 0
DWIDTH 6 0
BBX 4 7 1 0
BITMAP
90
A0
C0
A0
90
90
90
ENDCHAR
STARTCHAR char76
ENCODING 76
SWIDTH 523 0
DWIDTH 6 0
BBX 4 7 1 0
BITMAP
80
80
80
80
80
80
F0
ENDCHAR
STARTCHAR char77
ENCODING 77
SWIDTH 785 0
DWIDTH 9 0
BBX 7 7 1 0
BITMAP
FC
92
92
92
92
92
92
ENDCHAR
STARTCHAR char78
ENCODING 78
SWIDTH 523 0
DWIDTH 6 0
BBX 4 7 1 0
BITMAP
E0
90
90
90
90
90
90
ENDCHAR
STARTCHAR char79
ENCODING 79
SWIDTH 523 0
DWIDTH 6 0
BBX 4 7 1 0
BITMAP
60
90
90
90
90
90
60
ENDCHAR
STARTCHAR char80
ENCODING 80
SWIDTH 523 0
DWIDTH 6 0
BBX 4 7 1 0
BITMAP
E0
90
90
E0
80
80
80
ENDCHAR
STARTCHAR char81
ENCODING 81
SWIDTH 523 0
DWIDTH 6 0
BBX 4 8 1 -1
BITMAP
60
90
90
90
90
90
60
10
ENDCHAR
STARTCHAR char82
ENCODING 82
SWIDTH 523 0
DWIDTH 6 0
BBX 4 7 1 0
BITMAP
E0
90
90
E0
90
90
90
ENDCHAR
STARTCHAR char83
ENCODING 83
SWIDTH 523 0
DWIDTH 6 0
BBX 4 7 1 0
BITMAP
70
80
80
60
10
10
E0
ENDCHAR
STARTCHAR char84
ENCODING 84
SWIDTH 610 0
DWIDTH 7 0
BBX 5 7 1 0
BITMAP
F8
20
20
20
20
20
20
ENDCHAR
STARTCHAR char85
ENCODING 85
SWIDTH 523 0
DWIDTH 6 0
BBX 4 7 1 0
BITMAP
90
90
90
90
90
90
70
ENDCHAR
STARTCHAR char86
ENCODING 86
SWIDTH 523 0
DWIDTH 6 0
BBX 4 7 1 0
BITMAP
90
90
90
90
90
60
60
ENDCHAR
STARTCHAR char87
ENCODING 87
SWIDTH 785 0
DWIDTH 9 0
BBX 7 7 1 0
BITMAP
92
92
92
92
92
92
7E
ENDCHAR
STARTCHAR char88
ENCODING 88
SWIDTH 523 0
DWIDTH 6 0
BBX 4 7 1 0
BITMAP
90
90
90
60
90
90
90
ENDCHAR
STARTCHAR char89
ENCODING 89
SWIDTH 610 0
DWIDTH 7 0
BBX 5 7 1 0
BITMAP
88
50
20
20
20
20
20
ENDCHAR
STARTCHAR char90
ENCODING 90
SWIDTH 523 0
DWIDTH 6 0
BBX 4 7 1 0
BITMAP
F0
10
20
40
80
80
F0
ENDCHAR
STARTCHAR char91
ENCODING 91
SWIDTH 523 0
DWIDTH 6 0
BBX 4 9 1 -1
BITMAP
F0
80
80
80
80
80
80
80
F0
ENDCHAR
STARTCHAR char92
ENCODING 92
SWIDTH 610 0
DWIDTH 7 0
BBX 5 10 1 -2
BITMAP
80
80
40
40
20
20
10
10
08
08
ENDCHAR
STARTCHAR char93
ENCODING 93
SWIDTH 523 0
DWIDTH 6 0
BBX 4 9 1 -1
BITMAP
F0
10
10
10
10
10
10
10
F0
ENDCHAR
STARTCHAR char94
ENCODING 94
SWIDTH 610 0
DWIDTH 7 0
BBX 5 4 1 3
BITMAP
20
70
D8
88
ENDCHAR
STARTCHAR char95
ENCODING 95
SWIDTH 610 0
DWIDTH 7 0
BBX 5 1 1 0
BITMAP
F8
ENDCHAR
STARTCHAR char96
ENCODING 96
SWIDTH 261 0
DWIDTH 3 0
BBX 2 4 1 4
BITMAP
40
80
80
80
ENDCHAR
STARTCHAR char97
ENCODING 97
SWIDTH 523 0
DWIDTH 6 0
BBX 4 6 1 0
BITMAP
60
10
70
90
90
70
ENDCHAR
STARTCHAR char98
ENCODING 98
SWIDTH 523 0
DWIDTH 6 0
BBX 4 8 1 0
BITMAP
80
80
E0
90
90
90
90
E0
ENDCHAR
STARTCHAR char99
ENCODING 99
SWIDTH 523 0
DWIDTH 6 0
BBX 4 6 1 0
BITMAP
70
80
80
80
80
70
ENDCHAR
STARTCHAR char100
ENCODING 100
SWIDTH 523 0
DWIDTH 6 0
BBX 4 8 1 0
BITMAP
10
10
70
90
90
90
90
70
ENDCHAR
STARTCHAR char101
ENCODING 101
SWIDTH 523 0
DWIDTH 6 0
BBX 4 6 1 0
BITMAP
60
90
F0
80
80
70
ENDCHAR
STARTCHAR char102
ENCODING 102
SWIDTH 436 0
DWIDTH 5 0
BBX 4 8 0 0
BITMAP
30
40
F0
40
40
40
40
40
ENDCHAR
STARTCHAR char103
ENCODING 103
SWIDTH 523 0
DWIDTH 6 0
BBX 4 8 1 -2
BITMAP
70
90
90
90
90
70
10
60
ENDCHAR
STARTCHAR char104
ENCODING 104
SWIDTH 523 0
DWIDTH 6 0
BBX 4 8 1 0
BITMAP
80
80
E0
90
90
90
90
90
ENDCHAR
STARTCHAR char105
ENCODING 105
SWIDTH 261 0
DWIDTH 3 0
BBX 1 8 1 0
BITMAP
80
00
80
80
80
80
80
80
ENDCHAR
STARTCHAR char106
ENCODING 106
SWIDTH 261 0
DWIDTH 3 0
BBX 3 10 -1 -2
BITMAP
20
00
20
20
20
20
20
20
20
C0
ENDCHAR
STARTCHAR char107
ENCODING 107
SWIDTH 523 0
DWIDTH 6 0
BBX 4 8 1 0
BITMAP
80
80
90
A0
C0
A0
90
90
ENDCHAR
STARTCHAR char108
ENCODING 108
SWIDTH 261 0
DWIDTH 3 0
BBX 1 8 1 0
BITMAP
80
80
80
80
80
80
80
80
ENDCHAR
STARTCHAR char109
ENCODING 109
SWIDTH 785 0
DWIDTH 9 0
BBX 7 6 1 0
BITMAP
FC
92
92
92
92
92
ENDCHAR
STARTCHAR char110
ENCODING 110
SWIDTH 523 0
DWIDTH 6 0
BBX 4 6 1 0
BITMAP
E0
90
90
90
90
90
ENDCHAR
STARTCHAR char111
ENCODING 111
SWIDTH 523 0
DWIDTH 6 0
BBX 4 6 1 0
BITMAP
60
90
90
90
90
60
ENDCHAR
STARTCHAR char112
ENCODING 112
SWIDTH 523 0
DWIDTH 6 0
BBX 4 8 1 -2
BITMAP
E0
90
90
90
90
E0
80
80
ENDCHAR
STARTCHAR char113
ENCODING 113
SWIDTH 523 0
DWIDTH 6 0
BBX 4 8 1 -2
BITMAP
70
90
90
90
90
70
10
10
ENDCHAR
STARTCHAR char114
ENCODING 114
SWIDTH 349 0
DWIDTH 4 0
BBX 3 6 1 0
BITMAP
E0
80
80
80
80
80
ENDCHAR
STARTCHAR char115
ENCODING 115
SWIDTH 523 0
DWIDTH 6 0
BBX 4 6 1 0
BITMAP
70
80
60
10
10
E0
ENDCHAR
STARTCHAR char116
ENCODING 116
SWIDTH 436 0
DWIDTH 5 0
BBX 3 7 1 0
BITMAP
40
E0
40
40
40
40
40
ENDCHAR
STARTCHAR char117
ENCODING 117
SWIDTH 523 0
DWIDTH 6 0
BBX 4 6 1 0
BITMAP
90
90
90
90
90
70
ENDCHAR
STARTCHAR char118
ENCODING 118
SWIDTH 523 0
DWIDTH 6 0
BBX 4 6 1 0
BITMAP
90
90
90
90
60
60
ENDCHAR
STARTCHAR char119
ENCODING 119
SWIDTH 785 0
DWIDTH 9 0
BBX 7 6 1 0
BITMAP
92
92
92
92
92
7E
ENDCHAR
STARTCHAR char120
ENCODING 120
SWIDTH 523 0
DWIDTH 6 0
BBX 4 6 1 0
BITMAP
90
90
60
90
90
90
ENDCHAR
STARTCHAR char121
ENCODING 121
SWIDTH 523 0
DWIDTH 6 0
BBX 4 8 1 -2
BITMAP
90
90
90
90
90
70
10
60
ENDCHAR
STARTCHAR char122
ENCODING 122
SWIDTH 523 0
DWIDTH 6 0
BBX 4 6 1 0
BITMAP
F0
10
20
40
80
F0
ENDCHAR
STARTCHAR char123
ENCODING 123
SWIDTH 523 0
DWIDTH 6 0
BBX 4 9 0 -1
BITMAP
30
40
40
40
C0
40
40
40
30
ENDCHAR
STARTCHAR char124
ENCODING 124
SWIDTH 261 0
DWIDTH 3 0
BBX 1 9 1 -1
BITMAP
80
80
80
80
80
80
80
80
80
ENDCHAR
STARTCHAR char125
ENCODING 125
SWIDTH 523 0
DWIDTH 6 0
BBX 4 9 1 -1
BITMAP
C0
20
20
20
30
20
20
20
C0
ENDCHAR
STARTCHAR char126
ENCODING 126
SWIDTH 698 0
DWIDTH 8 0
BBX 6 2 1 4
BITMAP
64
98
ENDCHAR
STARTCHAR char128
ENCODING 128
SWIDTH 0 0
DWIDTH 0 0
BBX 0 0 0 0
BITMAP
ENDCHAR
STARTCHAR char33
ENCODING 161
SWIDTH 261 0
DWIDTH 3 0
BBX 1 7 1 0
BITMAP
80
80
00
80
80
80
80
ENDCHAR
STARTCHAR char99
ENCODING 162
SWIDTH 523 0
DWIDTH 6 0
BBX 4 7 1 -1
BITMAP
10
70
A0
A0
A0
70
40
ENDCHAR
STARTCHAR char102
ENCODING 163
SWIDTH 436 0
DWIDTH 5 0
BBX 4 7 0 0
BITMAP
30
40
40
F0
40
40
F0
ENDCHAR
STARTCHAR char164
ENCODING 164
SWIDTH 698 0
DWIDTH 8 0
BBX 6 6 1 1
BITMAP
84
78
48
48
78
84
ENDCHAR
STARTCHAR char165
ENCODING 165
SWIDTH 436 0
DWIDTH 5 0
BBX 5 8 1 0
BITMAP
88
50
50
20
F8
20
70
20
ENDCHAR
STARTCHAR char166
ENCODING 166
SWIDTH 349 0
DWIDTH 4 0
BBX 1 8 2 0
BITMAP
80
80
80
00
00
80
80
80
ENDCHAR
STARTCHAR char167
ENCODING 167
SWIDTH 610 0
DWIDTH 7 0
BBX 5 9 1 -1
BITMAP
30
48
60
90
88
48
30
90
60
ENDCHAR
STARTCHAR char168
ENCODING 168
SWIDTH 523 0
DWIDTH 6 0
BBX 3 1 2 6
BITMAP
A0
ENDCHAR
STARTCHAR char99
ENCODING 169
SWIDTH 698 0
DWIDTH 8 0
BBX 7 8 0 0
BITMAP
7C
82
BA
A2
A2
BA
82
7C
ENDCHAR
STARTCHAR char170
ENCODING 170
SWIDTH 523 0
DWIDTH 6 0
BBX 4 4 1 3
BITMAP
70
90
B0
50
ENDCHAR
STARTCHAR char187
ENCODING 171
SWIDTH 698 0
DWIDTH 8 0
BBX 6 5 1 1
BITMAP
24
48
90
48
24
ENDCHAR
STARTCHAR char172
ENCODING 172
SWIDTH 610 0
DWIDTH 7 0
BBX 5 2 1 2
BITMAP
F8
08
ENDCHAR
STARTCHAR char99
ENCODING 174
SWIDTH 698 0
DWIDTH 8 0
BBX 7 8 0 0
BITMAP
7C
82
B2
AA
B2
AA
82
7C
ENDCHAR
STARTCHAR char175
ENCODING 175
SWIDTH 610 0
DWIDTH 7 0
BBX 4 1 2 6
BITMAP
F0
ENDCHAR
STARTCHAR char176
ENCODING 176
SWIDTH 436 0
DWIDTH 5 0
BBX 3 3 1 4
BITMAP
E0
A0
E0
ENDCHAR
STARTCHAR char177
ENCODING 177
SWIDTH 523 0
DWIDTH 6 0
BBX 3 5 2 1
BITMAP
40
E0
40
00
E0
ENDCHAR
STARTCHAR char178
ENCODING 178
SWIDTH 349 0
DWIDTH 4 0
BBX 4 5 1 2
BITMAP
60
90
20
40
F0
ENDCHAR
STARTCHAR char179
ENCODING 179
SWIDTH 436 0
DWIDTH 5 0
BBX 3 5 1 2
BITMAP
C0
20
40
20
C0
ENDCHAR
STARTCHAR char180
ENCODING 180
SWIDTH 436 0
DWIDTH 5 0
BBX 2 2 2 5
BITMAP
40
80
ENDCHAR
STARTCHAR char117
ENCODING 181
SWIDTH 523 0
DWIDTH 6 0
BBX 4 7 1 -2
BITMAP
90
90
90
90
E0
80
80
ENDCHAR
STARTCHAR char113
ENCODING 182
SWIDTH 698 0
DWIDTH 8 0
BBX 6 7 1 0
BITMAP
7C
94
94
94
74
14
14
ENDCHAR
STARTCHAR char183
ENCODING 183
SWIDTH 349 0
DWIDTH 4 0
BBX 1 1 3 3
BITMAP
80
ENDCHAR
STARTCHAR char184
ENCODING 184
SWIDTH 523 0
DWIDTH 6 0
BBX 3 3 2 1
BITMAP
40
20
E0
ENDCHAR
STARTCHAR char179
ENCODING 185
SWIDTH 349 0
DWIDTH 4 0
BBX 2 5 1 2
BITMAP
40
C0
40
40
40
ENDCHAR
STARTCHAR char186
ENCODING 186
SWIDTH 523 0
DWIDTH 6 0
BBX 4 4 1 3
BITMAP
60
90
90
60
ENDCHAR
STARTCHAR char187
ENCODING 187
SWIDTH 698 0
DWIDTH 8 0
BBX 6 5 1 1
BITMAP
90
48
24
48
90
ENDCHAR
STARTCHAR char179
ENCODING 188
SWIDTH 698 0
DWIDTH 8 0
BBX 6 8 1 0
BITMAP
40
C0
40
48
18
28
3C
08
ENDCHAR
STARTCHAR char189
ENCODING 189
SWIDTH 698 0
DWIDTH 8 0
BBX 6 7 1 1
BITMAP
40
C0
40
58
04
08
1C
ENDCHAR
STARTCHAR char179
ENCODING 190
SWIDTH 698 0
DWIDTH 8 0
BBX 7 8 0 0
BITMAP
C0
20
40
24
CC
14
1E
04
ENDCHAR
STARTCHAR char63
ENCODING 191
SWIDTH 523 0
DWIDTH 6 0
BBX 4 7 1 0
BITMAP
20
20
00
20
40
80
70
ENDCHAR
STARTCHAR char65
ENCODING 192
SWIDTH 523 0
DWIDTH 6 0
BBX 4 8 1 0
BITMAP
40
20
60
90
90
F0
90
90
ENDCHAR
STARTCHAR char65
ENCODING 193
SWIDTH 523 0
DWIDTH 6 0
BBX 4 8 1 0
BITMAP
20
40
60
90
90
F0
90
90
ENDCHAR
STARTCHAR char65
ENCODING 194
SWIDTH 523 0
DWIDTH 6 0
BBX 4 8 1 0
BITMAP
60
90
00
60
90
F0
90
90
ENDCHAR
STARTCHAR char65
ENCODING 195
SWIDTH 523 0
DWIDTH 6 0
BBX 4 8 1 0
BITMAP
50
A0
60
90
90
F0
90
90
ENDCHAR
STARTCHAR char196
ENCODING 196
SWIDTH 523 0
DWIDTH 6 0
BBX 4 8 1 0
BITMAP
90
60
90
90
F0
90
90
90
ENDCHAR
STARTCHAR char197
ENCODING 197
SWIDTH 523 0
DWIDTH 6 0
BBX 4 8 1 0
BITMAP
60
60
90
90
F0
90
90
90
ENDCHAR
STARTCHAR char65
ENCODING 198
SWIDTH 610 0
DWIDTH 7 0
BBX 6 7 1 0
BITMAP
7C
90
90
F8
90
90
9C
ENDCHAR
STARTCHAR char67
ENCODING 199
SWIDTH 523 0
DWIDTH 6 0
BBX 4 9 1 -2
BITMAP
70
80
80
80
80
80
70
20
40
ENDCHAR
STARTCHAR char69
ENCODING 200
SWIDTH 523 0
DWIDTH 6 0
BBX 4 8 1 0
BITMAP
40
20
F0
80
E0
80
80
F0
ENDCHAR
STARTCHAR char69
ENCODING 201
SWIDTH 523 0
DWIDTH 6 0
BBX 4 8 1 0
BITMAP
20
40
F0
80
E0
80
80
F0
ENDCHAR
STARTCHAR char69
ENCODING 202
SWIDTH 523 0
DWIDTH 6 0
BBX 4 8 1 0
BITMAP
60
90
00
F0
80
E0
80
F0
ENDCHAR
STARTCHAR char69
ENCODING 203
SWIDTH 523 0
DWIDTH 6 0
BBX 4 8 1 0
BITMAP
50
00
F0
80
E0
80
80
F0
ENDCHAR
STARTCHAR char73
ENCODING 204
SWIDTH 174 0
DWIDTH 2 0
BBX 2 8 0 0
BITMAP
80
40
00
40
40
40
40
40
ENDCHAR
STARTCHAR char73
ENCODING 205
SWIDTH 261 0
DWIDTH 3 0
BBX 2 8 1 0
BITMAP
40
80
00
80
80
80
80
80
ENDCHAR
STARTCHAR char73
ENCODING 206
SWIDTH 261 0
DWIDTH 3 0
BBX 3 8 0 0
BITMAP
40
A0
00
40
40
40
40
40
ENDCHAR
STARTCHAR char73
ENCODING 207
SWIDTH 261 0
DWIDTH 3 0
BBX 3 8 0 0
BITMAP
A0
00
40
40
40
40
40
40
ENDCHAR
STARTCHAR char68
ENCODING 208
SWIDTH 523 0
DWIDTH 6 0
BBX 5 7 0 0
BITMAP
70
48
48
E8
48
48
70
ENDCHAR
STARTCHAR char110
ENCODING 209
SWIDTH 523 0
DWIDTH 6 0
BBX 4 8 1 0
BITMAP
50
A0
00
E0
90
90
90
90
ENDCHAR
STARTCHAR char79
ENCODING 210
SWIDTH 523 0
DWIDTH 6 0
BBX 4 8 1 0
BITMAP
40
20
60
90
90
90
90
60
ENDCHAR
STARTCHAR char79
ENCODING 211
SWIDTH 523 0
DWIDTH 6 0
BBX 4 8 1 0
BITMAP
20
40
60
90
90
90
90
60
ENDCHAR
STARTCHAR char79
ENCODING 212
SWIDTH 523 0
DWIDTH 6 0
BBX 4 8 1 0
BITMAP
60
90
60
90
90
90
90
60
ENDCHAR
STARTCHAR char79
ENCODING 213
SWIDTH 523 0
DWIDTH 6 0
BBX 4 8 1 0
BITMAP
50
A0
60
90
90
90
90
60
ENDCHAR
STARTCHAR char214
ENCODING 214
SWIDTH 523 0
DWIDTH 6 0
BBX 4 8 1 0
BITMAP
90
60
90
90
90
90
90
60
ENDCHAR
STARTCHAR char215
ENCODING 215
SWIDTH 523 0
DWIDTH 6 0
BBX 3 3 2 3
BITMAP
A0
40
A0
ENDCHAR
STARTCHAR char79
ENCODING 216
SWIDTH 610 0
DWIDTH 7 0
BBX 6 7 0 0
BITMAP
34
48
58
78
68
48
B0
ENDCHAR
STARTCHAR char85
ENCODING 217
SWIDTH 523 0
DWIDTH 6 0
BBX 4 8 1 0
BITMAP
40
20
90
90
90
90
90
70
ENDCHAR
STARTCHAR char85
ENCODING 218
SWIDTH 523 0
DWIDTH 6 0
BBX 4 8 1 0
BITMAP
20
40
90
90
90
90
90
70
ENDCHAR
STARTCHAR char85
ENCODING 219
SWIDTH 523 0
DWIDTH 6 0
BBX 4 8 1 0
BITMAP
60
90
00
90
90
90
90
70
ENDCHAR
STARTCHAR char85
ENCODING 220
SWIDTH 523 0
DWIDTH 6 0
BBX 4 8 1 0
BITMAP
50
00
90
90
90
90
90
70
ENDCHAR
STARTCHAR char89
ENCODING 221
SWIDTH 610 0
DWIDTH 7 0
BBX 5 8 1 0
BITMAP
10
20
88
50
20
20
20
20
ENDCHAR
STARTCHAR char112
ENCODING 222
SWIDTH 523 0
DWIDTH 6 0
BBX 4 9 1 -2
BITMAP
80
80
E0
90
90
90
E0
80
80
ENDCHAR
STARTCHAR char223
ENCODING 223
SWIDTH 610 0
DWIDTH 7 0
BBX 5 8 1 0
BITMAP
60
90
90
A0
90
88
88
B0
ENDCHAR
STARTCHAR char97
ENCODING 224
SWIDTH 523 0
DWIDTH 6 0
BBX 4 8 1 0
BITMAP
40
20
60
10
70
90
90
70
ENDCHAR
STARTCHAR char97
ENCODING 225
SWIDTH 523 0
DWIDTH 6 0
BBX 4 8 1 0
BITMAP
20
40
60
10
70
90
90
70
ENDCHAR
STARTCHAR char97
ENCODING 226
SWIDTH 523 0
DWIDTH 6 0
BBX 4 8 1 0
BITMAP
60
90
00
60
10
70
90
70
ENDCHAR
STARTCHAR char97
ENCODING 227
SWIDTH 523 0
DWIDTH 6 0
BBX 4 8 1 0
BITMAP
50
A0
00
60
10
70
90
70
ENDCHAR
STARTCHAR char228
ENCODING 228
SWIDTH 523 0
DWIDTH 6 0
BBX 4 8 1 0
BITMAP
50
00
60
10
70
90
90
70
ENDCHAR
STARTCHAR char229
ENCODING 229
SWIDTH 523 0
DWIDTH 6 0
BBX 4 8 1 0
BITMAP
20
00
60
10
70
90
90
70
ENDCHAR
STARTCHAR char97
ENCODING 230
SWIDTH 698 0
DWIDTH 8 0
BBX 7 6 1 0
BITMAP
7C
12
7E
98
98
76
ENDCHAR
STARTCHAR char99
ENCODING 231
SWIDTH 523 0
DWIDTH 6 0
BBX 4 8 1 -2
BITMAP
70
80
80
80
80
70
20
40
ENDCHAR
STARTCHAR char101
ENCODING 232
SWIDTH 523 0
DWIDTH 6 0
BBX 4 8 1 0
BITMAP
40
20
60
90
F0
80
80
70
ENDCHAR
STARTCHAR char101
ENCODING 233
SWIDTH 523 0
DWIDTH 6 0
BBX 4 8 1 0
BITMAP
20
40
60
90
F0
80
80
70
ENDCHAR
STARTCHAR char101
ENCODING 234
SWIDTH 523 0
DWIDTH 6 0
BBX 4 8 1 0
BITMAP
60
90
00
60
90
F0
80
70
ENDCHAR
STARTCHAR char101
ENCODING 235
SWIDTH 523 0
DWIDTH 6 0
BBX 4 8 1 0
BITMAP
50
00
60
90
F0
80
80
70
ENDCHAR
STARTCHAR char73
ENCODING 236
SWIDTH 261 0
DWIDTH 3 0
BBX 2 8 0 0
BITMAP
80
40
00
40
40
40
40
40
ENDCHAR
STARTCHAR char73
ENCODING 237
SWIDTH 261 0
DWIDTH 3 0
BBX 2 8 1 0
BITMAP
40
80
00
80
80
80
80
80
ENDCHAR
STARTCHAR char73
ENCODING 238
SWIDTH 261 0
DWIDTH 3 0
BBX 3 8 0 0
BITMAP
40
A0
00
40
40
40
40
40
ENDCHAR
STARTCHAR char73
ENCODING 239
SWIDTH 261 0
DWIDTH 3 0
BBX 3 8 0 0
BITMAP
A0
00
40
40
40
40
40
40
ENDCHAR
STARTCHAR char97
ENCODING 240
SWIDTH 523 0
DWIDTH 6 0
BBX 4 7 1 0
BITMAP
D0
20
10
70
90
90
60
ENDCHAR
STARTCHAR char110
ENCODING 241
SWIDTH 523 0
DWIDTH 6 0
BBX 4 8 1 0
BITMAP
50
A0
00
E0
90
90
90
90
ENDCHAR
STARTCHAR char111
ENCODING 242
SWIDTH 523 0
DWIDTH 6 0
BBX 4 8 1 0
BITMAP
40
20
60
90
90
90
90
60
ENDCHAR
STARTCHAR char111
ENCODING 243
SWIDTH 523 0
DWIDTH 6 0
BBX 4 8 1 0
BITMAP
20
40
60
90
90
90
90
60
ENDCHAR
STARTCHAR char79
ENCODING 244
SWIDTH 436 0
DWIDTH 5 0
BBX 4 8 1 0
BITMAP
60
90
00
60
90
90
90
60
ENDCHAR
STARTCHAR char79
ENCODING 245
SWIDTH 523 0
DWIDTH 6 0
BBX 4 8 1 0
BITMAP
50
A0
00
60
90
90
90
60
ENDCHAR
STARTCHAR char246
ENCODING 246
SWIDTH 523 0
DWIDTH 6 0
BBX 4 8 1 0
BITMAP
90
00
60
90
90
90
90
60
ENDCHAR
STARTCHAR char247
ENCODING 247
SWIDTH 610 0
DWIDTH 7 0
BBX 5 5 1 1
BITMAP
20
00
F8
00
20
ENDCHAR
STARTCHAR char111
ENCODING 248
SWIDTH 610 0
DWIDTH 7 0
BBX 6 8 0 -1
BITMAP
04
38
48
58
68
48
70
80
ENDCHAR
STARTCHAR char117
ENCODING 249
SWIDTH 523 0
DWIDTH 6 0
BBX 4 8 1 0
BITMAP
40
20
80
90
90
90
90
70
ENDCHAR
STARTCHAR char117
ENCODING 250
SWIDTH 523 0
DWIDTH 6 0
BBX 4 8 1 0
BITMAP
20
40
10
90
90
90
90
70
ENDCHAR
STARTCHAR char117
ENCODING 251
SWIDTH 523 0
DWIDTH 6 0
BBX 4 8 1 0
BITMAP
60
90
00
90
90
90
90
70
ENDCHAR
STARTCHAR char117
ENCODING 252
SWIDTH 523 0
DWIDTH 6 0
BBX 4 8 1 0
BITMAP
50
00
90
90
90
90
90
70
ENDCHAR
STARTCHAR char121
ENCODING 253
SWIDTH 523 0
DWIDTH 6 0
BBX 4 10 1 -2
BITMAP
20
40
10
90
90
90
90
70
10
60
ENDCHAR
STARTCHAR char112
ENCODING 254
SWIDTH 523 0
DWIDTH 6 0
BBX 4 10 1 -2
BITMAP
80
80
E0
90
90
90
90
E0
80
80
ENDCHAR
STARTCHAR char121
ENCODING 255
SWIDTH 523 0
DWIDTH 6 0
BBX 4 10 1 -2
BITMAP
50
00
90
90
90
90
90
70
10
60
ENDCHAR
ENDFONT
